<svg height="512pt" viewBox="-20 0 512 512" width="512pt" xmlns="http://www.w3.org/2000/svg"><path d="m41 497c0 8.285156 6.714844 15 15 15h360c8.285156 0 15-6.714844 15-15v-45h-390zm0 0"/><path d="m331 8.78125v91.21875h91.210938zm0 0"/><path d="m431 130h-115c-8.285156 0-15-6.714844-15-15v-115h-245c-8.285156 0-15 6.714844-15 15v147h390zm0 0"/><path d="m457 192h-442c-8.285156 0-15 6.714844-15 15v200c0 8.285156 6.714844 15 15 15h442c8.285156 0 15-6.714844 15-15v-200c0-8.285156-6.714844-15-15-15zm-318 160c8.269531 0 15-6.730469 15-15 0-8.285156 6.714844-15 15-15s15 6.714844 15 15c0 24.8125-20.1875 45-45 45s-45-20.1875-45-45v-60c0-24.8125 20.1875-45 45-45s45 20.1875 45 45c0 8.285156-6.714844 15-15 15s-15-6.714844-15-15c0-8.269531-6.730469-15-15-15s-15 6.730469-15 15v60c0 8.269531 6.730469 15 15 15zm122-30h-10v10c0 8.285156-6.714844 15-15 15s-15-6.714844-15-15v-10h-10c-8.285156 0-15-6.714844-15-15s6.714844-15 15-15h10v-10c0-8.285156 6.714844-15 15-15s15 6.714844 15 15v10h10c8.285156 0 15 6.714844 15 15s-6.714844 15-15 15zm100 0h-10v10c0 8.285156-6.714844 15-15 15s-15-6.714844-15-15v-10h-10c-8.285156 0-15-6.714844-15-15s6.714844-15 15-15h10v-10c0-8.285156 6.714844-15 15-15s15 6.714844 15 15v10h10c8.285156 0 15 6.714844 15 15s-6.714844 15-15 15zm0 0"/></svg>