<svg height="512pt" viewBox="-64 0 512 512.00046" width="512pt" xmlns="http://www.w3.org/2000/svg"><path d="m324.34375 267.933594c-3.699219 18.921875-2.328125 11.898437-6.019531 30.808594 18.980469 1.105468 34.101562 16.902343 34.101562 36.164062 0 16.5625-11.175781 31.132812-27.59375 35.171875l-21.472656 5.269531c-2.867187 14.652344-3 20.761719-7.246094 33.925782l36.152344-8.863282c30.257813-7.414062 51.394531-34.359375 51.394531-65.503906 0-34.445312-25.9375-62.945312-59.316406-66.972656zm0 0"/><path d="m84.773438 432.9375h163.703124c19.765626-24.546875 17.871094-29.777344 47.058594-180.351562 1.867188-9.640626-5.515625-18.597657-15.332031-18.597657h-227.15625c-9.820313 0-17.203125 8.960938-15.332031 18.601563 29.914062 154.121094 27.976562 156.589844 47.058594 180.347656zm0 0"/><path d="m62.09375 512h209.0625c23.9375 0 46.21875-11.441406 59.621094-30.621094 5.972656-8.550781-.152344-17.203125-7.960938-17.203125h-312.386718c-8.417969 0-13.355469 9.472657-8.535157 16.375 14.691407 21.03125 37.214844 31.449219 60.199219 31.449219zm0 0"/><path d="m183.097656 167.175781c-6.324218 7.179688-4.480468 17.195313 1.847656 22.433594 6.308594 5.214844 15.953126 4.617187 21.59375-1.789063l11.53125-13.09375c12.785157-14.519531 16.316407-35.585937 3.617188-56.714843-3.167969-5.273438-2.84375-11.871094.832031-16.808594l19.191407-25.796875c5.148437-6.917969 3.714843-16.703125-3.207032-21.851562-6.921875-5.148438-16.707031-3.714844-21.855468 3.207031l-19.191407 25.792969c-11.265625 15.140624-12.261719 35.375-2.542969 51.546874 4.238282 7.054688 5.171876 13.78125-.285156 19.980469zm0 0"/><path d="m123.46875 189.226562c3.679688 7.800782 12.980469 11.144532 20.789062 7.464844 7.800782-3.675781 11.144532-12.984375 7.46875-20.789062l-15.363281-32.582032c-6.902343-14.644531-1.804687-32.234374 11.863281-40.917968 41.851563-26.585938 42.089844-69.902344 20.761719-96.542969-5.390625-6.734375-15.21875-7.824219-21.953125-2.433594-6.734375 5.394531-7.820312 15.222657-2.433594 21.953125 10.253907 12.808594 12.332032 34.484375-13.125 50.65625-26.921874 17.105469-36.96875 51.757813-23.367187 80.605469zm0 0"/></svg>