<?xml version="1.0" encoding="UTF-8" standalone="no"?>
<svg
   xmlns:dc="http://purl.org/dc/elements/1.1/"
   xmlns:cc="http://creativecommons.org/ns#"
   xmlns:rdf="http://www.w3.org/1999/02/22-rdf-syntax-ns#"
   xmlns:svg="http://www.w3.org/2000/svg"
   xmlns="http://www.w3.org/2000/svg"
   viewBox="0 0 165.7375 112.5375"
   height="112.5375"
   width="165.7375"
   xml:space="preserve"
   version="1.1"
   id="svg2"><metadata
     id="metadata8"><rdf:RDF><cc:Work
         rdf:about=""><dc:format>image/svg+xml</dc:format><dc:type
           rdf:resource="http://purl.org/dc/dcmitype/StillImage" /></cc:Work></rdf:RDF></metadata><defs
     id="defs6" /><g
     transform="matrix(1.25,0,0,-1.25,0,112.5375)"
     id="g10"><g
       transform="scale(0.1,0.1)"
       id="g12"><path
         id="path14"
         style="fill:#1b4f9c;fill-opacity:1;fill-rule:nonzero;stroke:none"
         d="m 943.223,160.254 0,227.894 209.987,-0.007 0,150.257 -209.987,0 0,212.872 230.567,0 0,-82.594 152.07,0 0,231.594 -608.915,0 0,-149 57.02,0 0,-591.016 -56.824,0 0,-150.2423 281.062,0 0,150.2423 -54.98,0" /><path
         id="path16"
         style="fill:#1b4f9c;fill-opacity:1;fill-rule:nonzero;stroke:none"
         d="m 645.793,346.461 0,404.848 56.27,0 0,148.961 -281.661,0 0,-148.961 54.922,0 0,-354.5 c 0,-148.582 -17.176,-219.993 -123.875,-219.993 -106.699,0 -123.863,71.411 -123.863,219.993 l 0,354.5 54.496,0 0,148.961 -282.082,0 0,-148.961 55.8711,0 0,-404.848 c 0,-88.414 0,-160.856 41.7031,-225.945 C 144.18,46.8359 228.801,0 351.449,0 568.531,0 645.793,113.145 645.793,346.461" /></g></g></svg>