<?xml version="1.0" encoding="UTF-8" standalone="no"?>
<!DOCTYPE svg PUBLIC "-//W3C//DTD SVG 1.1//EN" "http://www.w3.org/Graphics/SVG/1.1/DTD/svg11.dtd">
<svg version="1.1" xmlns="http://www.w3.org/2000/svg" xmlns:xlink="http://www.w3.org/1999/xlink" preserveAspectRatio="xMidYMid meet" viewBox="0 0 38 42" width="38" height="42"><defs><path d="M18.75 3.12C23.86 3.12 28.64 4.16 31.77 5C33.02 5.31 33.86 6.35 34.06 7.71C34.27 9.69 34.38 11.77 34.38 13.85C34.38 30.1 22.39 36.66 18.75 38.22C15.11 36.56 3.13 30 3.13 13.85C3.13 11.77 3.23 9.69 3.44 7.71C3.54 6.35 4.48 5.31 5.73 5C8.86 4.16 13.64 3.12 18.75 3.12M4.89 1.97C2.5 2.6 0.63 4.79 0.42 7.29C0.21 9.06 0 11.35 0 13.85C0 35.21 18.75 41.66 18.75 41.66C18.75 41.66 37.5 35.21 37.5 13.85C37.5 11.25 37.29 9.06 37.08 7.29C36.77 4.69 35 2.6 32.5 1.97C29.27 1.04 24.17 0 18.75 0C13.33 0 8.23 1.04 4.89 1.97Z" id="cj1VH2LM"></path><path d="M17.71 25L19.79 25L19.79 33.33L17.71 33.33L17.71 25Z" id="c3mqUUxSGn"></path><path d="M12.5 19.79C12.5 25.21 15.94 28.64 17.71 30.21C17.78 30 18.12 28.96 18.75 27.08C19.38 28.96 19.72 30 19.79 30.21C21.56 28.64 25 25.21 25 19.79C25 11.46 18.75 6.25 18.75 6.25C17.5 8.96 12.5 11.46 12.5 19.79Z" id="cTZFQjMMP"></path><path d="M18.75 6.25C18.75 6.25 12.5 11.46 12.5 19.79C12.5 25.21 15.94 28.64 17.71 30.21C17.78 30 18.12 28.96 18.75 27.08C18.75 15.97 18.75 9.03 18.75 6.25Z" id="l60HzGqBYZ"></path></defs><g><g><g><use xlink:href="#cj1VH2LM" opacity="1" fill="#ffffff" fill-opacity="1"></use><g><use xlink:href="#cj1VH2LM" opacity="1" fill-opacity="0" stroke="#000000" stroke-width="1" stroke-opacity="0"></use></g></g><g><use xlink:href="#c3mqUUxSGn" opacity="1" fill="#ffffff" fill-opacity="1"></use><g><use xlink:href="#c3mqUUxSGn" opacity="1" fill-opacity="0" stroke="#000000" stroke-width="1" stroke-opacity="0"></use></g></g><g><use xlink:href="#cTZFQjMMP" opacity="1" fill="#ffffff" fill-opacity="1"></use><g><use xlink:href="#cTZFQjMMP" opacity="1" fill-opacity="0" stroke="#000000" stroke-width="1" stroke-opacity="0"></use></g></g><g><use xlink:href="#l60HzGqBYZ" opacity="1" fill="#ffffff" fill-opacity="1"></use><g><use xlink:href="#l60HzGqBYZ" opacity="1" fill-opacity="0" stroke="#000000" stroke-width="1" stroke-opacity="0"></use></g></g></g></g></svg>