<?xml version="1.0" encoding="UTF-8"?>
<svg xmlns="http://www.w3.org/2000/svg" viewBox="0 0 64 64" width="64px" height="64px">
<g id="surface41058601">
<path style=" stroke:none;fill-rule:nonzero;fill:rgb(100%,100%,100%);fill-opacity:1;" d="M 28 59 C 27.597656 59 27.222656 58.753906 27.070312 58.367188 C 25.082031 53.347656 21.378906 44 18.625 44 C 17.339844 44 16.066406 44.824219 16.054688 44.832031 C 15.710938 45.0625 15.253906 45.054688 14.914062 44.8125 L 2.414062 35.8125 C 2.121094 35.597656 1.964844 35.242188 2.007812 34.882812 C 2.050781 34.519531 2.285156 34.210938 2.621094 34.074219 L 19.085938 27.316406 C 19.820312 26.230469 22.675781 22.253906 25.765625 21.066406 C 26.234375 20.886719 26.621094 20.738281 26.953125 20.617188 C 28.628906 19.988281 28.628906 19.988281 29.90625 18.785156 L 30.191406 18.519531 C 31.929688 16.890625 35.246094 11.765625 36.273438 10.101562 C 36.390625 9.90625 36.519531 9.695312 36.652344 9.472656 C 37.769531 7.585938 39.296875 5 41.625 5 C 44.296875 5 45.714844 7.75 47.289062 11.347656 C 48.742188 14.65625 52.613281 25.605469 54.199219 30.304688 C 58.007812 41.613281 61.859375 49.480469 61.898438 49.558594 C 62.09375 49.957031 62.003906 50.433594 61.679688 50.734375 C 61.351562 51.035156 60.867188 51.089844 60.488281 50.859375 C 60.40625 50.8125 58.46875 49.636719 55.292969 46.457031 C 52.9375 44.097656 51.015625 43 49.25 43 C 46.140625 43 43.945312 45.472656 41.164062 48.601562 L 40.996094 48.789062 C 40.667969 49.160156 40.304688 49.585938 39.910156 50.050781 C 37.148438 53.28125 32.980469 58.164062 28.167969 58.988281 C 28.113281 58.996094 28.054688 59 28 59 Z M 18.625 42 C 22.316406 42 25.238281 48.371094 28.613281 56.835938 C 32.417969 55.738281 35.980469 51.570312 38.386719 48.75 C 38.792969 48.277344 39.164062 47.839844 39.503906 47.460938 L 39.667969 47.273438 C 42.660156 43.90625 45.242188 41 49.25 41 C 52.28125 41 54.828125 43.160156 56.707031 45.042969 C 57.304688 45.640625 57.855469 46.164062 58.355469 46.617188 C 56.847656 43.183594 54.566406 37.65625 52.304688 30.945312 C 50.667969 26.09375 46.828125 15.273438 45.460938 12.152344 C 43.992188 8.8125 42.949219 7 41.625 7 C 40.4375 7 39.144531 9.183594 38.371094 10.492188 C 38.230469 10.726562 38.101562 10.949219 37.976562 11.148438 C 37.933594 11.214844 33.855469 17.824219 31.558594 19.980469 L 31.277344 20.242188 C 29.75 21.679688 29.648438 21.742188 27.65625 22.488281 C 27.332031 22.613281 26.945312 22.757812 26.484375 22.933594 C 24.070312 23.863281 21.410156 27.386719 20.59375 28.664062 C 20.480469 28.839844 20.320312 28.972656 20.128906 29.050781 L 5.046875 35.242188 L 15.566406 42.8125 C 16.242188 42.46875 17.390625 42 18.625 42 Z M 18.625 42 "/>
<path style=" stroke:none;fill-rule:nonzero;fill:rgb(100%,100%,100%);fill-opacity:1;" d="M 15.925781 44.90625 L 15.074219 43.097656 C 15.136719 43.066406 21.265625 40.101562 26.035156 32.707031 C 30.566406 25.683594 32.804688 20.199219 34.007812 17.253906 C 34.3125 16.503906 34.546875 15.933594 34.726562 15.566406 C 35.164062 14.652344 35.589844 13.558594 36.039062 12.398438 C 37.449219 8.761719 38.910156 5 41.625 5 L 41.625 7 C 40.277344 7 38.90625 10.535156 37.90625 13.121094 C 37.441406 14.320312 37 15.453125 36.527344 16.433594 C 36.359375 16.78125 36.144531 17.3125 35.859375 18.011719 C 34.632812 21.019531 32.347656 26.613281 27.714844 33.792969 C 22.617188 41.691406 16.195312 44.777344 15.925781 44.90625 Z M 15.925781 44.90625 "/>
<path style=" stroke:none;fill-rule:nonzero;fill:rgb(100%,100%,100%);fill-opacity:1;" d="M 26.148438 34.175781 L 19.148438 28.925781 L 20.351562 27.324219 L 27.351562 32.574219 Z M 26.148438 34.175781 "/>
<path style=" stroke:none;fill-rule:nonzero;fill:rgb(100%,100%,100%);fill-opacity:1;" d="M 38.171875 45.945312 C 41.292969 42.433594 44.242188 39.117188 49 39.003906 C 49 39.003906 45.625 24.125 42.75 11.875 C 42.164062 9.386719 41.933594 9 41.691406 9 C 41.523438 9 41.328125 9.363281 41.175781 10.207031 C 40.34375 14.695312 36.414062 31.421875 33.25 39.5 C 32.039062 42.585938 29.878906 44.402344 28 45.25 C 27.140625 45.640625 25.898438 46 25.898438 46 C 27.199219 48.277344 28.4375 51.078125 29.710938 54.203125 C 32.394531 52.6875 35.023438 49.613281 36.867188 47.453125 C 37.28125 46.96875 37.664062 46.519531 38.007812 46.132812 Z M 38.171875 45.945312 "/>
</g>
</svg>
